<svg width="81" height="78" viewBox="0 0 81 78" fill="none" xmlns="http://www.w3.org/2000/svg">
<path d="M71.3333 0C73.6982 0 75.9662 0.913092 77.6384 2.53841C79.3106 4.16372 80.25 6.36812 80.25 8.66667V69.3333C80.25 71.6319 79.3106 73.8363 77.6384 75.4616C75.9662 77.0869 73.6982 78 71.3333 78H8.91667C6.55182 78 4.28383 77.0869 2.61163 75.4616C0.939431 73.8363 0 71.6319 0 69.3333V8.66667C0 6.36812 0.939431 4.16372 2.61163 2.53841C4.28383 0.913092 6.55182 0 8.91667 0H71.3333ZM69.1042 67.1667V44.2C69.1042 40.4534 67.5729 36.8602 64.8472 34.2109C62.1215 31.5617 58.4247 30.0733 54.57 30.0733C50.7804 30.0733 46.3667 32.3267 44.2267 35.7067V30.8967H31.7879V67.1667H44.2267V45.8033C44.2267 42.4667 46.9908 39.7367 50.4238 39.7367C52.0791 39.7367 53.6667 40.3758 54.8373 41.5136C56.0078 42.6513 56.6654 44.1944 56.6654 45.8033V67.1667H69.1042ZM17.2983 24.0933C19.2848 24.0933 21.1899 23.3263 22.5946 21.9611C23.9992 20.5958 24.7883 18.7441 24.7883 16.8133C24.7883 12.7833 21.4446 9.49 17.2983 9.49C15.3 9.49 13.3836 10.2616 11.9706 11.635C10.5576 13.0083 9.76375 14.8711 9.76375 16.8133C9.76375 20.8433 13.1521 24.0933 17.2983 24.0933ZM23.4954 67.1667V30.8967H11.1458V67.1667H23.4954Z" fill="#4793DF"/>
</svg>
